<svg version="1.2" xmlns="http://www.w3.org/2000/svg" xmlns:xlink="http://www.w3.org/1999/xlink" overflow="visible" preserveAspectRatio="none" viewBox="0 0 414 406" width="414" height="406"><g transform="translate(0, 0)"><defs><path id="path-159733984452124" d="M0 0 C0 0 414 0 414 0 C414 0 414 385.9999999999996 414 385.9999999999996 C414 397.0456949959996 405.045694996 405.9999999999996 394 405.9999999999996 C394 405.9999999999996 20.000000000000004 405.9999999999996 20.000000000000004 405.9999999999996 C8.954305004000002 405.9999999999996 0 397.0456949959996 0 385.9999999999996 C0 385.9999999999996 0 0 0 0 Z" vector-effect="non-scaling-stroke"/><filter height="102.95566502463053%" id="filter-1597339844605125" width="102.41545893719808%" x="-1.2077294685990339%" y="-0.7389162561576355%" vector-effect="non-scaling-stroke"><feFlood flood-opacity="0" result="backgroundFix" vector-effect="non-scaling-stroke"/><feColorMatrix in="SourceAlpha" result="hardAlpha" type="matrix" values="0 0 0 0 0 0 0 0 0 0 0 0 0 0 0 0 0 0 127 0" vector-effect="non-scaling-stroke"/><feOffset dx="0" dy="2" vector-effect="non-scaling-stroke"/><feGaussianBlur stdDeviation="2.166666666666667" vector-effect="non-scaling-stroke"/><feColorMatrix in="" result="" type="matrix" values="0 0 0 0 0  0 0 0 0 0  0 0 0 0 0  0 0 0 0.5 0" vector-effect="non-scaling-stroke"/><feBlend in2="backgroundFix" mode="normal" result="shadowOuter_1" vector-effect="non-scaling-stroke"/></filter></defs><g transform="translate(0, 0)"><use xmlns:xlink="http://www.w3.org/1999/xlink" xlink:href="#path-159733984452124" filter="url(#filter-1597339844605125)" vector-effect="non-scaling-stroke"/><path d="M0 0 C0 0 414 0 414 0 C414 0 414 385.9999999999996 414 385.9999999999996 C414 397.0456949959996 405.045694996 405.9999999999996 394 405.9999999999996 C394 405.9999999999996 20.000000000000004 405.9999999999996 20.000000000000004 405.9999999999996 C8.954305004000002 405.9999999999996 0 397.0456949959996 0 385.9999999999996 C0 385.9999999999996 0 0 0 0 Z" style="stroke: rgb(140, 140, 140); stroke-width: 0; stroke-linecap: butt; stroke-linejoin: miter; fill: rgb(51, 51, 51);" vector-effect="non-scaling-stroke"/></g></g></svg>