<svg version="1.2" xmlns="http://www.w3.org/2000/svg" xmlns:xlink="http://www.w3.org/1999/xlink" overflow="visible" preserveAspectRatio="none" viewBox="0 -5.491961414790996 56 56" width="16" height="16"><g>
	<g>
		<path d="M51,0H5C3.7,0,2.6,0.5,1.7,1.3c-0.1,0-0.1,0.1-0.2,0.1c0,0,0,0,0,0.1C0.6,2.3,0,3.6,0,5v35c0,2.8,2.2,5,5,5h46    c2.8,0,5-2.2,5-5V5C56,2.2,53.8,0,51,0z M51,2c0.4,0,0.8,0.1,1.1,0.2L28,26.4L3.8,2.2C4.2,2.1,4.6,2,5,2H51z M54,40    c0,1.7-1.3,3-3,3H5c-1.7,0-3-1.3-3-3V5c0-0.5,0.1-1,0.4-1.4L27,28.2c0.2,0.2,0.5,0.3,0.7,0.3c0.1,0,0.2,0,0.3-0.1    c0.1,0,0.2,0.1,0.3,0.1c0.3,0,0.5-0.1,0.7-0.3L53.6,3.6C53.9,4,54,4.5,54,5V40z" style="fill: rgb(255, 186, 43);" vector-effect="non-scaling-stroke"/>
	</g>
</g><g/></svg>