<svg version="1.2" xmlns="http://www.w3.org/2000/svg" xmlns:xlink="http://www.w3.org/1999/xlink" overflow="visible" preserveAspectRatio="none" viewBox="0 0 52 52" width="20" height="20"><g><g xmlns:default="http://www.w3.org/2000/svg">
	<g>
		<path d="M26,0C11.7,0,0,11.7,0,26c0,14.3,11.7,26,26,26c14.3,0,26-11.7,26-26C52,11.7,40.3,0,26,0z M26,50C12.8,50,2,39.2,2,26    C2,12.8,12.8,2,26,2c13.2,0,24,10.8,24,24C50,39.2,39.2,50,26,50z M26,10c-1.3,0-2.4,1.1-2.4,2.4c0,1.3,1.1,2.4,2.4,2.4    c1.3,0,2.4-1.1,2.4-2.4C28.4,11,27.4,10,26,10z M26,21c-0.6,0-1,0.4-1,1v19c0,0.6,0.4,1,1,1c0.6,0,1-0.4,1-1V22    C27,21.5,26.6,21,26,21z" style="fill: rgb(255, 255, 255);" vector-effect="non-scaling-stroke"/>
	</g>
</g></g></svg>