<svg version="1.2" xmlns="http://www.w3.org/2000/svg" overflow="visible" preserveAspectRatio="none" viewBox="0 0 52 52" width="20" height="20"><path d="M26 0C11.7 0 0 11.7 0 26s11.7 26 26 26 26-11.7 26-26S40.3 0 26 0zm0 50C12.8 50 2 39.2 2 26S12.8 2 26 2s24 10.8 24 24-10.8 24-24 24zm0-40c-1.3 0-2.4 1.1-2.4 2.4 0 1.3 1.1 2.4 2.4 2.4 1.3 0 2.4-1.1 2.4-2.4 0-1.4-1-2.4-2.4-2.4zm0 11c-.6 0-1 .4-1 1v19c0 .6.4 1 1 1s1-.4 1-1V22c0-.5-.4-1-1-1z" vector-effect="non-scaling-stroke" fill="#fff" xmlns:default="http://www.w3.org/2000/svg"/></svg>