<svg version="1.2" xmlns="http://www.w3.org/2000/svg" overflow="visible" preserveAspectRatio="none" viewBox="-5.012 0 56 56" width="24" height="24"><path d="M30.1 17.2c0-4.1-3.3-7.4-7.3-7.4s-7.3 3.3-7.3 7.4c0 4.1 3.3 7.4 7.3 7.4 4.1-.1 7.3-3.4 7.3-7.4zm-12.5 0c0-2.9 2.4-5.3 5.3-5.3s5.3 2.4 5.3 5.3-2.4 5.3-5.3 5.3-5.3-2.4-5.3-5.3zm5.2 33.1l.8-.9c.7-.8 16.3-19.5 16.2-31.7C39.8 8 32.2 0 22.9 0c-9.4 0-17 8-17 17.8 0 12.2 15.5 30.9 16.2 31.7l.7.8zM22.9 2c8.2 0 14.9 7.1 15 15.7 0 10-11.8 25.5-15 29.4-3.1-3.9-15-19.4-15-29.4C7.9 9.1 14.6 2 22.9 2zM41 37h-6v2h4l4 15H3l4-15h3v-2H5L0 56h46l-5-19z" vector-effect="non-scaling-stroke" fill="#ffba2b"/></svg>