<svg version="1.2" xmlns="http://www.w3.org/2000/svg" overflow="visible" preserveAspectRatio="none" viewBox="0 -1.998 58 58" width="28" height="28"><path d="M56.9 7.2L43.7.2c-.2-.1-.6-.2-.9-.2s-.6.1-.9.2L29.6 6.7 16.8.2c-.2-.1-.6-.2-.9-.2s-.6.1-.9.2l-13.8 7C.5 7.6 0 8.2 0 9v43c0 .7.5 1.3 1.1 1.7.3.2.7.3 1.1.3.3 0 .7-.1.9-.2l12.8-6.5 12.8 6.5c.3.1.6.2.9.2H29.9c.3 0 .6-.1.7-.3l12.1-6.4L55 53.8c.3.2.6.2.9.2.4 0 .7-.1 1-.3.6-.4 1-1 1-1.7V9c.1-.7-.3-1.4-1-1.8zM15 45.4L2 52V9l13-6.6v43zm14 6.3l-12-6.1v-43l12 6.1v43zm13-35l-.1.1c-.4.4-.4 1 0 1.4l.1.1v27.1l-11 5.8v-43-.1l11-5.8v14.4zM56 52l-12-6.4V17.5l2-2c.4-.4.4-1 0-1.4-.4-.4-1-.4-1.4 0l-.6.6V2.6L56 9v43zM5.2 18.8c.2.2.5.3.7.3s.5-.1.7-.3L8.4 17l1.8 1.8c.2.2.5.3.7.3s.5-.1.7-.3c.4-.4.4-1 0-1.4l-1.8-1.8 1.8-1.8c.4-.4.4-1 0-1.4-.4-.4-1-.4-1.4 0l-1.8 1.8-1.8-1.8c-.4-.4-1-.4-1.4 0-.4.4-.4 1 0 1.4L7 15.6l-1.8 1.8c-.4.4-.4 1 0 1.4zm15 3.9c.2.2.5.3.7.3s.5-.1.7-.3l1.8-1.8 1.8 1.8c.2.2.5.3.7.3s.5-.1.7-.3c.4-.4.4-1 0-1.4l-1.8-1.8 1.8-1.8c.4-.4.4-1 0-1.4-.4-.4-1-.4-1.4 0l-1.8 1.8-1.8-1.8c-.4-.4-1-.4-1.4 0-.4.4-.4 1 0 1.4l1.8 1.8-1.8 1.8c-.4.4-.4 1.1 0 1.4zM8.6 37.3c-.4-.4-1-.4-1.4 0-.4.4-.4 1 0 1.4L9 40.5l-1.8 1.8c-.4.4-.4 1 0 1.4.2.2.5.3.7.3s.5-.1.7-.3l1.8-1.8 1.8 1.8c.2.2.5.3.7.3s.5-.1.7-.3c.4-.4.4-1 0-1.4l-1.8-1.8 1.8-1.8c.4-.4.4-1 0-1.4-.4-.4-1-.4-1.4 0L10.4 39l-1.8-1.7zm40-5c-.4-.4-1-.4-1.4 0-.4.4-.4 1 0 1.4l1.8 1.8-1.8 1.8c-.4.4-.4 1 0 1.4.2.2.5.3.7.3s.5-.1.7-.3l1.8-1.8 1.8 1.8c.2.2.5.3.7.3s.5-.1.7-.3c.4-.4.4-1 0-1.4l-1.8-1.8 1.8-1.8c.4-.4.4-1 0-1.4-.4-.4-1-.4-1.4 0l-1.8 1.8-1.8-1.8zm-12.1 4.8c-1.9 0-3.5 1.5-3.5 3.5 0 1.9 1.5 3.4 3.5 3.4h.1c1.9 0 3.5-1.5 3.5-3.5-.1-1.8-1.6-3.4-3.6-3.4zm0 5c-.9 0-1.5-.6-1.5-1.5 0-.8.7-1.4 1.5-1.4s1.5.6 1.5 1.5c0 .7-.7 1.4-1.5 1.4zm-3.8-12.7c.1.4.5.7.9.7.1 0 .2 0 .3-.1.5-.2.8-.7.6-1.3l-.5-1.4.9-.9c.4-.4.4-1 0-1.4-.4-.4-1-.4-1.4 0l-1.4 1.4c-.3.3-.4.8-.1 1.2l.7 1.8zm2.2 3.4c-.5.2-.8.7-.6 1.3l.6 1.9c.1.4.5.7.9.7.1 0 .2 0 .3-.1.5-.2.8-.7.6-1.3l-.6-1.9c-.1-.5-.7-.8-1.2-.6zm2.2-8.8c.3 0 .5-.1.7-.3l2.7-2.7c.4-.4.4-1 0-1.4-.4-.4-1-.4-1.4 0l-2.7 2.7c-.4.4-.4 1 0 1.4.2.2.4.3.7.3zM47 10.3h1.5l-1.1 1.1c-.4.4-.4 1 0 1.4.2.2.5.3.7.3s.5-.1.7-.3l1.2-1.2v1.7c0 .5.4 1 1 1s1-.4 1-1v-4c0-.5-.4-1-1-1h-4c-.6 0-1 .4-1 1s.4 1 1 1z" vector-effect="non-scaling-stroke" fill="#fff"/></svg>