<svg version="1.2" xmlns="http://www.w3.org/2000/svg" xmlns:xlink="http://www.w3.org/1999/xlink" overflow="visible" preserveAspectRatio="none" viewBox="0 -1.9981378026070793 58 58" width="28" height="28"><g>
	<g>
		<path d="M56.9,7.2l-13.2-7C43.5,0.1,43.1,0,42.8,0s-0.6,0.1-0.9,0.2L29.6,6.7L16.8,0.2C16.6,0.1,16.2,0,15.9,0S15.3,0.1,15,0.2    l-13.8,7C0.5,7.6,0,8.2,0,9v43c0,0.7,0.5,1.3,1.1,1.7C1.4,53.9,1.8,54,2.2,54c0.3,0,0.7-0.1,0.9-0.2l12.8-6.5l12.8,6.5    c0.3,0.1,0.6,0.2,0.9,0.2c0.1,0,0.2,0,0.2,0c0.1,0,0.1,0,0.1,0c0.3,0,0.6-0.1,0.7-0.3l12.1-6.4l12.3,6.5c0.3,0.2,0.6,0.2,0.9,0.2    c0.4,0,0.7-0.1,1-0.3c0.6-0.4,1-1,1-1.7V9C58,8.3,57.6,7.6,56.9,7.2z M15,45.4L2,52V9l13-6.6V45.4z M29,51.7l-12-6.1v-43l12,6.1    V51.7z M42,16.7l-0.1,0.1c-0.4,0.4-0.4,1,0,1.4c0,0,0.1,0.1,0.1,0.1v27.1l-11,5.8v-43c0,0,0,0,0-0.1l11-5.8V16.7z M56,52l-12-6.4    V17.5l2-2c0.4-0.4,0.4-1,0-1.4c-0.4-0.4-1-0.4-1.4,0L44,14.7V2.6L56,9V52z M5.2,18.8c0.2,0.2,0.5,0.3,0.7,0.3s0.5-0.1,0.7-0.3    L8.4,17l1.8,1.8c0.2,0.2,0.5,0.3,0.7,0.3s0.5-0.1,0.7-0.3c0.4-0.4,0.4-1,0-1.4l-1.8-1.8l1.8-1.8c0.4-0.4,0.4-1,0-1.4    c-0.4-0.4-1-0.4-1.4,0l-1.8,1.8l-1.8-1.8c-0.4-0.4-1-0.4-1.4,0c-0.4,0.4-0.4,1,0,1.4L7,15.6l-1.8,1.8C4.8,17.8,4.8,18.4,5.2,18.8z     M20.2,22.7c0.2,0.2,0.5,0.3,0.7,0.3s0.5-0.1,0.7-0.3l1.8-1.8l1.8,1.8c0.2,0.2,0.5,0.3,0.7,0.3s0.5-0.1,0.7-0.3    c0.4-0.4,0.4-1,0-1.4l-1.8-1.8l1.8-1.8c0.4-0.4,0.4-1,0-1.4c-0.4-0.4-1-0.4-1.4,0l-1.8,1.8l-1.8-1.8c-0.4-0.4-1-0.4-1.4,0    c-0.4,0.4-0.4,1,0,1.4l1.8,1.8l-1.8,1.8C19.8,21.7,19.8,22.4,20.2,22.7z M8.6,37.3c-0.4-0.4-1-0.4-1.4,0c-0.4,0.4-0.4,1,0,1.4    L9,40.5l-1.8,1.8c-0.4,0.4-0.4,1,0,1.4c0.2,0.2,0.5,0.3,0.7,0.3s0.5-0.1,0.7-0.3l1.8-1.8l1.8,1.8c0.2,0.2,0.5,0.3,0.7,0.3    s0.5-0.1,0.7-0.3c0.4-0.4,0.4-1,0-1.4l-1.8-1.8l1.8-1.8c0.4-0.4,0.4-1,0-1.4c-0.4-0.4-1-0.4-1.4,0L10.4,39L8.6,37.3z M48.6,32.3    c-0.4-0.4-1-0.4-1.4,0c-0.4,0.4-0.4,1,0,1.4l1.8,1.8l-1.8,1.8c-0.4,0.4-0.4,1,0,1.4c0.2,0.2,0.5,0.3,0.7,0.3s0.5-0.1,0.7-0.3    l1.8-1.8l1.8,1.8c0.2,0.2,0.5,0.3,0.7,0.3s0.5-0.1,0.7-0.3c0.4-0.4,0.4-1,0-1.4l-1.8-1.8l1.8-1.8c0.4-0.4,0.4-1,0-1.4    c-0.4-0.4-1-0.4-1.4,0l-1.8,1.8L48.6,32.3z M36.5,37.1c-1.9,0-3.5,1.5-3.5,3.5c0,1.9,1.5,3.4,3.5,3.4h0.1c1.9,0,3.5-1.5,3.5-3.5    C40,38.7,38.5,37.1,36.5,37.1z M36.5,42.1L36.5,42.1c-0.9,0-1.5-0.6-1.5-1.5c0-0.8,0.7-1.4,1.5-1.4c0.8,0,1.5,0.6,1.5,1.5    C38,41.4,37.3,42.1,36.5,42.1z M32.7,29.4c0.1,0.4,0.5,0.7,0.9,0.7c0.1,0,0.2,0,0.3-0.1c0.5-0.2,0.8-0.7,0.6-1.3l-0.5-1.4l0.9-0.9    c0.4-0.4,0.4-1,0-1.4c-0.4-0.4-1-0.4-1.4,0l-1.4,1.4c-0.3,0.3-0.4,0.8-0.1,1.2L32.7,29.4z M34.9,32.8c-0.5,0.2-0.8,0.7-0.6,1.3    l0.6,1.9c0.1,0.4,0.5,0.7,0.9,0.7c0.1,0,0.2,0,0.3-0.1c0.5-0.2,0.8-0.7,0.6-1.3l-0.6-1.9C36,32.9,35.4,32.6,34.9,32.8z M37.1,24    c0.3,0,0.5-0.1,0.7-0.3l2.7-2.7c0.4-0.4,0.4-1,0-1.4c-0.4-0.4-1-0.4-1.4,0l-2.7,2.7c-0.4,0.4-0.4,1,0,1.4    C36.6,23.9,36.8,24,37.1,24z M47,10.3h1.5l-1.1,1.1c-0.4,0.4-0.4,1,0,1.4c0.2,0.2,0.5,0.3,0.7,0.3s0.5-0.1,0.7-0.3l1.2-1.2v1.7    c0,0.5,0.4,1,1,1s1-0.4,1-1v-4c0-0.5-0.4-1-1-1h-4c-0.6,0-1,0.4-1,1S46.4,10.3,47,10.3z" style="fill: rgb(255, 255, 255);" vector-effect="non-scaling-stroke"/>
	</g>
</g><g/></svg>