<svg version="1.2" xmlns="http://www.w3.org/2000/svg" overflow="visible" preserveAspectRatio="none" viewBox="-0.495 0 43 43" width="20" height="20"><path d="M15 0H3C1.3 0 0 1.3 0 3v12c0 1.7 1.3 3 3 3h12c1.7 0 3-1.3 3-3V3c0-1.7-1.3-3-3-3zm1 15c0 .6-.4 1-1 1H3c-.6 0-1-.4-1-1V3c0-.6.4-1 1-1h12c.6 0 1 .4 1 1v12zM39 0H27c-1.7 0-3 1.3-3 3v12c0 1.7 1.3 3 3 3h12c1.7 0 3-1.3 3-3V3c0-1.7-1.3-3-3-3zm1 15c0 .6-.4 1-1 1H27c-.6 0-1-.4-1-1V3c0-.6.4-1 1-1h12c.6 0 1 .4 1 1v12zM15 25H3c-1.7 0-3 1.3-3 3v12c0 1.7 1.3 3 3 3h12c1.7 0 3-1.3 3-3V28c0-1.7-1.3-3-3-3zm1 15c0 .6-.4 1-1 1H3c-.6 0-1-.4-1-1V28c0-.6.4-1 1-1h12c.6 0 1 .4 1 1v12zm23-15H27c-1.7 0-3 1.3-3 3v12c0 1.7 1.3 3 3 3h12c1.7 0 3-1.3 3-3V28c0-1.7-1.3-3-3-3zm1 15c0 .6-.4 1-1 1H27c-.6 0-1-.4-1-1V28c0-.6.4-1 1-1h12c.6 0 1 .4 1 1v12z" vector-effect="non-scaling-stroke" fill="#121212" xmlns:default="http://www.w3.org/2000/svg"/></svg>