<svg version="1.2" xmlns="http://www.w3.org/2000/svg" overflow="visible" preserveAspectRatio="none" viewBox="-12.42 0 621 621" width="28" height="28"><path xmlns:default="http://www.w3.org/2000/svg" d="M520.8 223.3V0L0 223.3v148.9l74.4 32.2v215.8h148.9V468.9l297.6 126.5V372.1c42.1 0 74.4-32.2 74.4-74.4s-32.3-74.4-74.5-74.4zm-496 17.3L372 91.7V506L24.8 357.2V240.6zm173.6 354.7H99.2v-181l99.2 42.1v138.9zM496 558.1L396.8 516V79.5L496 37.3v520.8zm24.8-210.8V248c27.2 0 49.6 22.3 49.6 49.6s-22.3 49.7-49.6 49.7z" vector-effect="non-scaling-stroke" fill="#fff"/></svg>