<svg version="1.2" xmlns="http://www.w3.org/2000/svg" xmlns:xlink="http://www.w3.org/1999/xlink" overflow="visible" preserveAspectRatio="none" viewBox="-0.49450000000000216 0 43 43" width="20" height="20"><g><g xmlns:default="http://www.w3.org/2000/svg">
	<g>
		<path d="M15,0H3C1.3,0,0,1.3,0,3v12c0,1.7,1.3,3,3,3h12c1.7,0,3-1.3,3-3V3C18,1.3,16.7,0,15,0z M16,15c0,0.6-0.4,1-1,1H3    c-0.6,0-1-0.4-1-1V3c0-0.6,0.4-1,1-1h12c0.6,0,1,0.4,1,1V15z M39,0H27c-1.7,0-3,1.3-3,3v12c0,1.7,1.3,3,3,3h12c1.7,0,3-1.3,3-3V3    C42,1.3,40.7,0,39,0z M40,15c0,0.6-0.4,1-1,1H27c-0.6,0-1-0.4-1-1V3c0-0.6,0.4-1,1-1h12c0.6,0,1,0.4,1,1V15z M15,25H3    c-1.7,0-3,1.3-3,3v12c0,1.7,1.3,3,3,3h12c1.7,0,3-1.3,3-3V28C18,26.3,16.7,25,15,25z M16,40c0,0.6-0.4,1-1,1H3c-0.6,0-1-0.4-1-1    V28c0-0.6,0.4-1,1-1h12c0.6,0,1,0.4,1,1V40z M39,25H27c-1.7,0-3,1.3-3,3v12c0,1.7,1.3,3,3,3h12c1.7,0,3-1.3,3-3V28    C42,26.3,40.7,25,39,25z M40,40c0,0.6-0.4,1-1,1H27c-0.6,0-1-0.4-1-1V28c0-0.6,0.4-1,1-1h12c0.6,0,1,0.4,1,1V40z" style="fill: rgb(18, 18, 18);" vector-effect="non-scaling-stroke"/>
	</g>
</g></g></svg>