<svg version="1.2" xmlns="http://www.w3.org/2000/svg" overflow="visible" preserveAspectRatio="none" viewBox="0 -3.999 51 51" width="28" height="28"><path d="M42.9 0H8.5L0 13.3V43h51V13.3L42.9 0zm-1.2 2l6.7 11H29.9l-.8-11h12.6zM22.9 2H27l.8 11H22l.9-11zM22 15h6v9h-6v-9zM9.6 2h11.3l-.8 11H2.6l7-11zM49 41H2V15h18v11h10V15h19v26zM39 31h7c.6 0 1-.4 1-1s-.4-1-1-1h-7c-.6 0-1 .4-1 1s.4 1 1 1zm-7 4h14c.6 0 1-.4 1-1s-.4-1-1-1H32c-.6 0-1 .4-1 1s.4 1 1 1zm14 2h-9c-.6 0-1 .4-1 1s.4 1 1 1h9c.6 0 1-.4 1-1s-.4-1-1-1z" vector-effect="non-scaling-stroke" fill="#fff"/></svg>