<svg version="1.2" xmlns="http://www.w3.org/2000/svg" xmlns:xlink="http://www.w3.org/1999/xlink" overflow="visible" preserveAspectRatio="none" viewBox="0 -61.442165709598044 684 684" width="28" height="28"><g><g xmlns:default="http://www.w3.org/2000/svg">
	<g>
		<path d="M684,473.6h-52.6V342l0,0V184.2H473.6v131.5H342v157.9H184.2H78.9V368.3l105.2,105.2l368.3-368.3L447.3,0L78.9,368.3V78.9    H0v26.3h52.6v394.6H342l0,0h289.4l0,0H684V473.6z M447.3,36.8l68.4,68.4L184.2,436.7l-68.4-68.4L447.3,36.8z M499.9,210.5h105.2    v105.2H499.9V210.5z M368.3,342h105.2h131.5v131.5H368.3V342z" style="fill: rgb(255, 255, 255);" vector-effect="non-scaling-stroke"/>
		<circle cx="123.7" cy="539.3" r="21" style="fill: rgb(255, 255, 255);" vector-effect="non-scaling-stroke"/>
		<circle cx="610.4" cy="539.3" r="21" style="fill: rgb(255, 255, 255);" vector-effect="non-scaling-stroke"/>
	</g>
</g></g></svg>