<svg version="1.2" xmlns="http://www.w3.org/2000/svg" overflow="visible" preserveAspectRatio="none" viewBox="0 0 44 44" width="20" height="20"><path d="M43.8 33.4L37.5 27c-1.1-1.1-3.1-1.1-4.2 0l-2.8 2.8c-1.1 1.1-3.1 1.1-4.2 0L14.8 18.5c-1.2-1.2-1.2-3.1 0-4.2l2.8-2.8c.6-.6.9-1.3.9-2.1s-.3-1.6-.9-2.1L11.2.9C10.1-.2 8.1-.2 7 .9L4.2 3.7l-.1.1c-.2 0-.6.3-.8.8-3.6 3.8-4.3 8.5-1.9 14 1.8 4.1 5.2 8.7 10.6 14 8.2 8.2 14.6 12 20.2 12 2.9 0 5.6-1.1 7.9-3.3.5-.2.7-.6.8-.8 0-.1.1-.1.1-.1l2.8-2.8c1.2-1.2 1.2-3.1 0-4.2zM8.5 2.3c.4-.4 1-.4 1.4 0l6.4 6.4c.2.2.3.4.3.7s-.1.5-.3.7l-2.1 2.1-7.9-7.8 2.2-2.1zm4.9 29c-5.2-5.2-8.5-9.6-10.2-13.4C1.1 13 1.7 9 4.9 5.8l7.8 7.9c-1.3 1.9-1.1 4.6.6 6.3l11.3 11.3c.9.9 2.2 1.5 3.5 1.5 1 0 1.9-.3 2.8-.8l7.9 7.8c-2 2-4.2 2.9-6.7 2.9-4.9 0-11-3.8-18.7-11.4zm29 4.9l-2.1 2.1-7.8-7.8 2.1-2.1c.4-.4 1-.4 1.4 0l6.4 6.4c.4.4.4 1 0 1.4z" vector-effect="non-scaling-stroke" fill="#ffba2b" xmlns:default="http://www.w3.org/2000/svg"/></svg>