<svg version="1.2" xmlns="http://www.w3.org/2000/svg" xmlns:xlink="http://www.w3.org/1999/xlink" overflow="visible" preserveAspectRatio="none" viewBox="0 0 44 44" width="20" height="20"><g><g xmlns:default="http://www.w3.org/2000/svg">
	<g>
		<path d="M43.8,33.4L37.5,27c-1.1-1.1-3.1-1.1-4.2,0l-2.8,2.8c-1.1,1.1-3.1,1.1-4.2,0L14.8,18.5c-1.2-1.2-1.2-3.1,0-4.2l2.8-2.8    c0.6-0.6,0.9-1.3,0.9-2.1c0-0.8-0.3-1.6-0.9-2.1l-6.4-6.4c-1.1-1.1-3.1-1.1-4.2,0L4.2,3.7c0,0,0,0-0.1,0.1    C3.9,3.8,3.5,4.1,3.3,4.6c-3.6,3.8-4.3,8.5-1.9,14c1.8,4.1,5.2,8.7,10.6,14c8.2,8.2,14.6,12,20.2,12c2.9,0,5.6-1.1,7.9-3.3    c0.5-0.2,0.7-0.6,0.8-0.8c0-0.1,0.1-0.1,0.1-0.1l2.8-2.8C45,36.4,45,34.5,43.8,33.4z M8.5,2.3c0.4-0.4,1-0.4,1.4,0l6.4,6.4    c0.2,0.2,0.3,0.4,0.3,0.7s-0.1,0.5-0.3,0.7l-2.1,2.1L6.3,4.4L8.5,2.3z M13.4,31.3c-5.2-5.2-8.5-9.6-10.2-13.4    C1.1,13,1.7,9,4.9,5.8l0,0l7.8,7.9c-1.3,1.9-1.1,4.6,0.6,6.3l11.3,11.3c0.9,0.9,2.2,1.5,3.5,1.5c1,0,1.9-0.3,2.8-0.8l7.9,7.8    c-2,2-4.2,2.9-6.7,2.9C27.2,42.7,21.1,38.9,13.4,31.3z M42.4,36.2l-2.1,2.1l-7.8-7.8l2.1-2.1c0.4-0.4,1-0.4,1.4,0l6.4,6.4    C42.8,35.2,42.8,35.8,42.4,36.2z" style="fill: rgb(255, 186, 43);" vector-effect="non-scaling-stroke"/>
	</g>
</g></g></svg>