<svg version="1.2" xmlns="http://www.w3.org/2000/svg" overflow="visible" preserveAspectRatio="none" viewBox="0 0 24 24" width="20" height="22"><path xmlns:default="http://www.w3.org/2000/svg" d="M16 3.38c-.23-.22-.5-.39-.79-.5-.29-.13-.6-.2-.92-.21H5c-.55 0-1 .45-1 1v16.66c0 .55.45 1 1 1h14c.55 0 1-.45 1-1v-12c-.01-.32-.08-.63-.21-.92-.11-.29-.28-.56-.5-.79L16 3.38zm-.95.94l3.26 3.26c.11.13.19.27.23.43h-3.87V4.09c.15.05.3.12.42.23h-.04zM18.66 20H5.34V4h8v4.34c0 .55.45 1 1 1h4.33V20h-.01zM14 12l-4 4-1.33-1.33-2 2v2h10.66v-3.34L14 12zm-3.91.75c.78-.78.79-2.04.01-2.83-.38-.38-.89-.59-1.43-.59a2 2 0 101.41 3.42h.01z" vector-effect="non-scaling-stroke"/></svg>