<svg version="1.2" xmlns="http://www.w3.org/2000/svg" overflow="visible" preserveAspectRatio="none" viewBox="0 0 632 632" width="20" height="20"><g xmlns:default="http://www.w3.org/2000/svg" fill="#ffba2b"><path d="M315.7 0C142.1 0 0 142.1 0 315.7s142.1 315.7 315.7 315.7 315.7-142.1 315.7-315.7S489.3 0 315.7 0zm0 605.1c-160.5 0-289.4-128.9-289.4-289.4S155.2 26.3 315.7 26.3s289.4 128.9 289.4 289.4-128.9 289.4-289.4 289.4z" vector-effect="non-scaling-stroke"/><path d="M247.3 234.2c0-28.9 28.9-55.2 73.7-55.2s78.9 28.9 78.9 28.9l18.4-26.3s-28.9-28.9-84.2-31.6v-44.7h-28.9V150c-55.2 5.3-92.1 44.7-92.1 86.8 0 100 178.9 81.6 178.9 163.1 0 34.2-31.6 55.2-71 55.2-55.2 0-92.1-36.8-92.1-36.8l-21 23.7s34.2 36.8 100 39.5v44.7h28.9v-42.1c57.9-5.3 92.1-42.1 92.1-86.8-2.7-105.3-181.6-89.5-181.6-163.1z" vector-effect="non-scaling-stroke"/></g></svg>