<svg version="1.2" xmlns="http://www.w3.org/2000/svg" overflow="visible" preserveAspectRatio="none" viewBox="0 0 24 24" width="20" height="22"><path xmlns:default="http://www.w3.org/2000/svg" d="M20.17 11.05l-.17-.57v.27l-.1.27v.09L19.13 13h1.44l-.4-1.95zM5.53 12.3a5.503 5.503 0 00-4.2-3.5v-.14h2.82c.37-.05.71.19.78.56l.6 3.07v.01zM7.4 8.67h1.83l-2.72 6.67H4.69L3.29 10c.52.23.98.57 1.36 1 .39.38.69.84.88 1.35l.18.93L7.4 8.67zm2.53 0h1.73l-1.08 6.68H8.85l1.08-6.68zm6.67 1.61l-.16-.08c-.41-.18-.85-.27-1.29-.25-.25-.02-.51.04-.73.17-.15.08-.25.23-.26.4.01.16.09.31.23.4.23.17.48.31.74.44.81.25 1.38.97 1.46 1.81.01.66-.3 1.29-.84 1.67-.63.44-1.4.66-2.17.61-.66.02-1.32-.1-1.93-.35l.24-1.5.23.11c.51.23 1.06.35 1.62.34.25 0 .5-.05.72-.17.19-.08.31-.27.31-.48 0-.16-.08-.31-.2-.41-.21-.18-.45-.32-.7-.43-.82-.25-1.41-.96-1.51-1.81 0-.63.3-1.23.82-1.59.61-.43 1.35-.64 2.09-.61.53 0 1.06.09 1.55.28l-.22 1.45zm6.06 5.07h-1.6c-.11-.51-.18-.85-.21-1h-2.21l-.36 1h-1.81L19 9.23c.14-.37.52-.6.91-.56h1.33l1.42 6.68zm.94-11c-.25-.24-.59-.37-.94-.35H1.34c-.36 0-.7.14-.94.4-.26.24-.4.59-.4.94v13.32c0 .36.14.7.4.94.24.26.58.4.94.4h21.32c.74 0 1.33-.6 1.34-1.34V5.34c0-.36-.14-.7-.4-.94v-.05z" vector-effect="non-scaling-stroke" fill="#f5f5f5"/></svg>