<svg version="1.2" xmlns="http://www.w3.org/2000/svg" overflow="visible" preserveAspectRatio="none" viewBox="0 0 24 24" width="20" height="22"><path xmlns:default="http://www.w3.org/2000/svg" d="M22.67 14.69h-8l4-7.33 4 7.33zm-13.32 0h-8l4-7.33 4 7.33zm4.55-9.33h5.12c.18.01.32-.13.33-.31V4.36a.317.317 0 00-.3-.34H13.9c-.13-.4-.39-.75-.73-1-.69-.49-1.62-.49-2.31 0-.34.25-.6.6-.73 1H5.01a.322.322 0 00-.33.31V5.02c-.01.18.12.33.3.34H10.12c.2.57.65 1.02 1.22 1.22v13.44H5.01c-.18-.01-.32.13-.33.31V21.02c-.01.18.13.32.31.33h14.02c.18.01.32-.13.33-.31V20.35c.01-.18-.13-.32-.31-.33h-6.35V6.57c.57-.2 1.02-.65 1.22-1.22v.01zm-2.47-.08c-.33-.32-.33-.85-.01-1.18s.85-.33 1.17-.01c.33.32.33.85.01 1.17-.15.16-.36.24-.58.25a.748.748 0 01-.59-.23zm11.91 9.41c-.08-.29-.19-.58-.33-.85l-1-1.82-1.11-2-1.06-1.95-.58-1.05a.672.672 0 00-1.17 0l-.58 1-1.06 2-1.11 2c-.39.73-.73 1.33-1 1.82-.15.27-.27.55-.36.84.01.49.19.97.51 1.34.33.41.74.73 1.22.95.48.23.98.4 1.5.52.95.23 1.95.23 2.9 0a7.2 7.2 0 001.5-.52 3.3 3.3 0 001.24-.95c.31-.38.48-.86.48-1.36l.01.03zm-13.32 0c-.09-.29-.21-.57-.36-.84-.24-.49-.57-1.09-1-1.82l-1.08-2.01-1.07-1.95-.58-1.05a.596.596 0 00-.57-.34.632.632 0 00-.6.34l-.58 1-1.06 2-1.11 2-1 1.82c-.15.27-.27.55-.36.84.01.49.2.97.52 1.34.32.43.74.77 1.22 1 .48.23.98.4 1.5.52.48.11.96.17 1.45.17s.97-.06 1.45-.17c.52-.12 1.03-.29 1.51-.52.48-.23.91-.57 1.23-1 .31-.38.48-.85.49-1.33z" vector-effect="non-scaling-stroke"/></svg>