<svg version="1.2" xmlns="http://www.w3.org/2000/svg" xmlns:xlink="http://www.w3.org/1999/xlink" overflow="visible" preserveAspectRatio="none" viewBox="0 0 24 24" width="20" height="22"><g><path xmlns:default="http://www.w3.org/2000/svg" id="balance-scale" d="M22.67,14.69h-8l4-7.33L22.67,14.69z M9.35,14.69h-8l4-7.33L9.35,14.69z M13.9,5.36h5.12  c0.18,0.01,0.32-0.13,0.33-0.31c0-0.01,0-0.02,0-0.03V4.36c0.01-0.18-0.12-0.33-0.3-0.34c-0.01,0-0.02,0-0.03,0H13.9  c-0.13-0.4-0.39-0.75-0.73-1c-0.69-0.49-1.62-0.49-2.31,0c-0.34,0.25-0.6,0.6-0.73,1H5.01C4.84,4.01,4.69,4.15,4.68,4.33  c0,0.01,0,0.01,0,0.02v0.67c-0.01,0.18,0.12,0.33,0.3,0.34c0.01,0,0.02,0,0.03,0h5.11c0.2,0.57,0.65,1.02,1.22,1.22v13.44H5.01  c-0.18-0.01-0.32,0.13-0.33,0.31c0,0.01,0,0.01,0,0.02v0.67c-0.01,0.18,0.13,0.32,0.31,0.33c0.01,0,0.01,0,0.02,0h14  c0.18,0.01,0.32-0.13,0.33-0.31c0-0.01,0-0.01,0-0.02v-0.67c0.01-0.18-0.13-0.32-0.31-0.33c-0.01,0-0.01,0-0.02,0h-6.33V6.57  c0.57-0.2,1.02-0.65,1.22-1.22l0,0L13.9,5.36z M11.43,5.28C11.1,4.96,11.1,4.43,11.42,4.1s0.85-0.33,1.17-0.01  c0.33,0.32,0.33,0.85,0.01,1.17c-0.15,0.16-0.36,0.24-0.58,0.25C11.79,5.52,11.58,5.44,11.43,5.28z M23.34,14.69  c-0.08-0.29-0.19-0.58-0.33-0.85c-0.27-0.49-0.6-1.09-1-1.82l-1.11-2l-1.06-1.95l-0.58-1.05c-0.18-0.32-0.59-0.44-0.91-0.26  c-0.11,0.06-0.2,0.15-0.26,0.26l-0.58,1l-1.06,2l-1.11,2c-0.39,0.73-0.73,1.33-1,1.82c-0.15,0.27-0.27,0.55-0.36,0.84  c0.01,0.49,0.19,0.97,0.51,1.34c0.33,0.41,0.74,0.73,1.22,0.95c0.48,0.23,0.98,0.4,1.5,0.52c0.95,0.23,1.95,0.23,2.9,0  c0.52-0.12,1.02-0.29,1.5-0.52c0.48-0.21,0.91-0.54,1.24-0.95c0.31-0.38,0.48-0.86,0.48-1.36l0,0L23.34,14.69z M10.02,14.69  c-0.09-0.29-0.21-0.57-0.36-0.84c-0.24-0.49-0.57-1.09-1-1.82l-1.08-2.01L6.51,8.07L5.93,7.02C5.83,6.8,5.6,6.67,5.36,6.68  C5.11,6.66,4.88,6.8,4.76,7.02l-0.58,1l-1.06,2l-1.11,2c-0.4,0.73-0.73,1.33-1,1.82c-0.15,0.27-0.27,0.55-0.36,0.84  c0.01,0.49,0.2,0.97,0.52,1.34c0.32,0.43,0.74,0.77,1.22,1c0.48,0.23,0.98,0.4,1.5,0.52c0.48,0.11,0.96,0.17,1.45,0.17  c0.49,0,0.97-0.06,1.45-0.17c0.52-0.12,1.03-0.29,1.51-0.52c0.48-0.23,0.91-0.57,1.23-1C9.84,15.64,10.01,15.17,10.02,14.69  L10.02,14.69z" style="fill: rgb(0, 0, 0);" vector-effect="non-scaling-stroke"/></g></svg>